# xmcd
#
# Track frame offsets:
#	150
#	22688
#	51702
#	77994
#	111094
#	158552
#
# Disc length: 2390 seconds
# Revision: 0
# Processed by: cddbd v1.5.2PL0 Copyright (c) Steve Scherf et al.
# Submitted via: dBpowerAMP V12.0
#
DISCID=41095406
DTITLE=King King - Live
DYEAR=2016
DGENRE=Blues
TTITLE0=Lose Control
TTITLE1=Wait on Time
TTITLE2=Waking Up
TTITLE3=Rush Hour
TTITLE4=A Long History of Love
TTITLE5=More Than I Can Take
EXTD=
EXTT0=
EXTT1=
EXTT2=
EXTT3=
EXTT4=
EXTT5=
PLAYORDER=
